<?xml version="1.0" encoding="utf-8"?>
<!-- Generator: Adobe Illustrator 18.0.0, SVG Export Plug-In . SVG Version: 6.00 Build 0)  -->
<!DOCTYPE svg PUBLIC "-//W3C//DTD SVG 1.1//EN" "http://www.w3.org/Graphics/SVG/1.1/DTD/svg11.dtd">
<svg version="1.1" id="Layer_1" xmlns="http://www.w3.org/2000/svg" xmlns:xlink="http://www.w3.org/1999/xlink" x="0px" y="0px"
	 viewBox="0 0 350 192" enable-background="new 0 0 350 192" xml:space="preserve">
<g>
	<path fill="#FFFFFF" d="M58,28.1l-22.9,91.9H19.9L45.5,14.7H74c0,0,22.8,0,17.5,25.9H77c0,0,2-11.3-4.2-12.5
		C69.7,27.5,58,28.1,58,28.1z"/>
	<path fill="#FFFFFF" d="M177.7,143.1l34.6,0l3.2-13.4h-28.4c0,0-3.9,0.2-5.2,0c-1.3-0.2-2.8-1-3.8-3.7c-1-2.4-0.1-6.4-0.1-6.4
		s17.4-68.5,20.1-79.7c3.4-14.1-6.6-24.7-16.6-24.9c-7.2-0.2-12.1,0-12.1,0s-20.8-2.1-29,25.4l-3.1,10.2c0,0-7.7,28.7-9.4,35.9
		c-1,4.1-3,11.1-6.3,13.5c-6.8,5-20.5,4.9-16.8-10l12-48.7c0,0,1.5-8.2,0.8-14.9c-0.8-7.9-7.3-11.4-7.3-11.4H92.5
		c0,0,6.5,3.3,8.5,10.7c1.7,5.9,1.4,10.5,0.2,15c-1.9,7.7-3.6,14.7-4.1,16.8c-4.6,19.7-10.8,44.2-11,45.3c-3.5,16,21,17.7,26.3,17
		c0.9-0.1,11.8-0.5,18.5-4.3c5.3-2.9,8.8-9.8,8.8-9.8l8.1-30.1c0,0,9.1-34.4,9.5-35.4c1.9-4.7,4-12,12.9-12.1
		c7.4-0.1,14.6,0,8.5,20.9c-0.9,3.1-17.7,70.5-17.7,70.5s-1.6,8.8,3.1,15.5C169.5,142.8,177.7,143.1,177.7,143.1z"/>
	<path fill="#FFFFFF" d="M310.1,15.2c-7.2-0.2-12.1,0-12.1,0s-1.9,0-5.1,0.4c-5.2,0.6-14.6,2.7-19,13.8c0,0,0,0,0,0
		c-0.9,3.6-1.8,7.5-2.8,11.2c-1.9,7.9-3.7,15-4.2,17.2c-4.6,19.7-10.8,44.2-11,45.3c-3.5,16,20.8,17.3,26.2,16.7
		c21.4-2.4,25-10.4,26.3-12.6c1.2-2.9,16.7-66.7,17-68C328.5,25,320.2,15.5,310.1,15.2z M297.1,93c-1.1,2.8-2.4,4.9-5.6,7.1
		c-7,4.8-20.7,5.2-17-9.8c0,0,13.3-52.8,13.8-54c1.5-3.8,5.3-7.8,10.6-7.9c7.3-0.1,14,1.2,9.2,19.4C308,48.3,298.1,90.6,297.1,93z"
		/>
	<path fill="#FFFFFF" d="M182.3,150.9c-6.4,23.4,16.2,22.1,16.2,22.1s21.2,0.4,28-5.7c5.5-5,8.2-16.5,8.2-16.5l1.8-7.6l3-13.1
		l7.1-30.5c0,0,0,0,0-0.1c4.6-17.7,14.6-59.2,14.9-60.2c3.2-14.2-5.1-23.8-15.2-24c-7.2-0.2-12.1,0-12.1,0s-1.9,0-5.1,0.4
		c-5.2,0.6-14.6,2.7-19,13.8c0,0,0,0,0,0c-0.9,3.6-1.8,7.5-2.8,11.2c-1.9,7.9-3.7,15-4.2,17.2c-4.6,19.7-10.8,44.2-11,45.3
		c-3.5,16,20.8,17.3,26.2,16.7c3.5-0.4,6.5-0.9,9.1-1.6c-0.5,1.9-1.5,6.4-2.7,11.7c-0.9,4.2-2,8.8-3.1,13.1
		c-0.6,2.3-1.2,4.5-1.7,6.5c-0.9,3.1-1.7,4.6-4.2,6.5c-3.5,2.7-13.1,2.8-15.5,2.3c-4.8-1.1-3.8-2.5-2.8-7.5H182.3z M244.3,47.9
		c-0.1,0.4-10.1,42.7-11,45.1c-1.1,2.8-2.4,4.9-5.7,7.1c-7,4.8-20.7,5.2-17-9.8c0,0,13.3-52.8,13.8-54c1.5-3.8,5.3-7.8,10.6-7.9
		C242.5,28.4,249.1,29.7,244.3,47.9z"/>
	<polygon fill="#FFFFFF" points="303.5,161 307.9,143.1 246.4,143.1 249.5,130 311.1,130 315.5,112.1 339.7,136.1 	"/>
</g>
</svg>
